<?xml version="1.0" encoding="utf-8"?>
<!-- Generator: Adobe Illustrator 26.0.1, SVG Export Plug-In . SVG Version: 6.00 Build 0)  -->
<svg version="1.1" id="Layer_1" xmlns="http://www.w3.org/2000/svg" xmlns:xlink="http://www.w3.org/1999/xlink" x="0px"
     y="0px"
     viewBox="0 0 792 612" style="enable-background:new 0 0 792 612;" xml:space="preserve">
<style type="text/css">
	.st0{fill:#001B71;}
	.st1{clip-path:url(#SVGID_00000178183258031375795180000009036020103362887073_);fill:#001B71;}
</style>
    <g>
	<path class="st0" d="M358.76,360.61c1.43-1.6,2.92-2.87,4.78-4.41l0.05-1.18c-2.33,1.85-4.4,3.74-6.2,5.63L358.76,360.61z
		 M353.61,367.63c-2.26,4.1-3.12,8.13-1.53,11.25c4.95,9.69,27.91,9.54,49.97,0.31c5.55-2.31,10.58-5.03,14.94-7.95
		c12.93-8.65,17.95-18.44,14.24-25.7c-4.94-9.7-25-10.73-47.08-1.49c-2.36,0.99-4.63,2.03-6.78,3.14l-1.86,0.01
		c3.15-1.73,6.67-3.51,10.21-4.99c25.1-10.5,49.99-10.08,55.61,0.95c4.22,8.26-2.2,19.85-16.99,29.71
		c-4.91,3.28-11.07,6.62-17.32,9.25c-25.09,10.52-50.23,9.86-55.85-1.17c-1.99-3.91-1.65-8.49,0.99-13.33L353.61,367.63z"/>
        <g>
		<path class="st0" d="M360.64,359.95c-1.81,6.85-7.33,9.56-12.9,9.56c-7.85,0-10.47-4.78-8.97-11.88
			c1.26-6.95,6.43-11.66,14.01-11.66c5.65,0,9.96,2.29,8.49,9.97h-8.14c0.51-3.66-0.31-4.16-1.4-4.14c-2.3,0-3.01,2.35-3.78,5.93
			c-0.72,3.39-1.07,5.92,1.16,5.92c1.15,0,2.07-0.68,3.2-3.71H360.64z"/>
            <path class="st0" d="M359.94,368.92h11.04c6.89,0,12.2-4.18,13.63-10.93c1.42-6.64-0.42-11.45-9.4-11.45h-10.5L359.94,368.92z
			 M372.3,351.62h0.87c1.42,0,2.15,0.52,2.51,1.42c0.4,0.93,0.25,2.51-0.21,4.69c-0.47,2.16-0.99,3.75-1.78,4.69
			c-0.75,0.89-1.69,1.43-3.13,1.43h-0.86L372.3,351.62z"/>
            <path class="st0" d="M386.57,346.53h7.95l-1.1,14.05h0.06l5.07-14.05h9.19l-0.92,14.05h0.06l4.88-14.05h7.95l-9.61,22.39h-9.62
			l1.01-14.52h-0.07l-5.16,14.52h-9.63L386.57,346.53z"/>
	</g>
        <path class="st0" d="M447.23,351.02c-1.12,0-2.03-0.9-2.03-2.02c0-1.11,0.91-2.02,2.03-2.02c1.12,0,2.03,0.91,2.03,2.02
		C449.26,350.12,448.35,351.02,447.23,351.02 M447.23,351.47c1.36,0,2.46-1.1,2.46-2.47c0-1.35-1.1-2.45-2.46-2.45
		c-1.37,0-2.47,1.1-2.47,2.45C444.76,350.37,445.86,351.47,447.23,351.47 M447.09,349.17c0.16,0.01,0.3,0,0.42,0.11
		c0.14,0.14,0.14,0.36,0.17,0.62c0.02,0.17,0.06,0.35,0.09,0.53h0.58c-0.09-0.26-0.12-0.57-0.17-0.85c-0.03-0.3-0.08-0.49-0.49-0.57
		v-0.01c0.39-0.08,0.59-0.35,0.59-0.67c0-0.65-0.55-0.79-1.08-0.79h-0.94v2.9h0.45v-1.26H447.09z M446.71,348.71v-0.74h0.54
		c0.36,0,0.46,0.11,0.46,0.33c0,0.24-0.1,0.42-0.53,0.42H446.71z"/>
        <path class="st0" d="M301.82,369.35l6.81-22.76h7.31l6.81,22.76h-6.64l-1.16-4.48h-5.65l-1.16,4.48H301.82z M312.12,354.07
		l-1.63,5.81h3.26l-1.59-5.81H312.12z"/>
        <path class="st0" d="M472.6,364.37c1.66,0,2.99-0.17,6.64-1l1.33,4.98c-3.32,1-5.65,1.33-8.47,1.33c-8.14,0-10.46-5.32-10.46-11.79
		s2.33-11.46,10.46-11.46c2.82,0,5.15,0.33,8.47,1.33l-1.33,4.98c-3.65-0.83-4.98-1-6.64-1c-3.16,0-4.65,1.99-4.65,6.15
		C467.95,362.38,469.45,364.37,472.6,364.37z"/>
        <path class="st0" d="M481.56,357.89c0-6.48,2.33-11.46,10.46-11.46c8.14,0,10.46,4.98,10.46,11.46s-2.33,11.79-10.46,11.79
		C483.88,369.69,481.56,364.37,481.56,357.89z M487.87,357.89c0,4.15,0.66,6.81,4.15,6.81c3.49,0,4.15-2.66,4.15-6.81
		s-0.67-6.48-4.15-6.48C488.54,351.42,487.87,353.74,487.87,357.89z"/>
        <path class="st0" d="M517.19,359.06l3.75-12.29h7.97v22.59h-5.98V357.4h-0.07l-3.92,11.96h-4.32l-3.75-11.96h-0.07v11.96h-5.81
		v-22.59h7.97l4.15,12.29H517.19z"/>
        <path class="st0" d="M538.01,362.38v6.98h-5.98v-22.59H542c4.98,0,7.97,2.99,7.97,7.81c0,4.82-2.99,7.81-7.97,7.81H538.01z
		 M538.01,357.06h3.32c1.33,0,2.49-0.5,2.49-2.49c0-1.99-1.16-2.49-2.49-2.49h-3.32V357.06z"/>
        <path class="st0" d="M549.43,369.35l6.81-22.76h7.31l6.81,22.76h-6.64l-1.16-4.48h-5.65l-1.16,4.48H549.43z M559.73,354.07
		l-1.63,5.81h3.25l-1.59-5.81H559.73z"/>
        <path class="st0"
              d="M584.7,369.35l-6.74-10.96h-0.07v10.96h-5.81v-22.59h5.98l7.08,11.63h0.07v-11.63h5.81v22.59H584.7z"/>
        <path class="st0"
              d="M602.9,355.4l3.29-8.64h6.48l-6.98,14.62v7.97h-5.98v-7.97l-6.98-14.62h6.81l3.29,8.64H602.9z"/>
</g>
    <g>
	<g>
		<g>
			<g>
				<rect x="368.84" y="269.95" class="st0" width="19.3" height="42.48"/>
                <path class="st0" d="M360.53,290.32c-2.75-2.03-6.87-3.41-12.36-4.15l-17.58-2.12c-3.02-0.28-4.94-0.74-5.95-1.11
					c-0.92-0.46-1.37-1.11-1.37-1.84c0-0.92,0.55-1.57,1.83-2.12c1.19-0.46,2.93-0.74,5.04-0.74c3.02,0,5.31,0.37,6.96,1.01
					c1.65,0.74,2.56,1.75,2.84,3.04h22.43c-0.46-4.61-3.2-8.02-8.24-10.23c-5.03-2.12-12.73-3.23-23.07-3.23
					c-9.98,0-17.3,1.11-21.88,3.23c-4.58,2.21-6.87,5.71-6.87,10.41c0,3.59,1.56,6.45,4.58,8.57c3.02,2.12,7.51,3.5,13.46,4.15
					l14.37,1.47c2.38,0.28,4.12,0.64,5.22,1.2c1.1,0.55,1.65,1.29,1.65,2.21c0,1.01-0.64,1.75-1.92,2.21
					c-1.28,0.55-3.2,0.83-5.86,0.83c-2.56,0-4.58-0.37-6.13-0.92c-1.46-0.65-2.29-1.57-2.47-2.67h-23.44
					c0.09,4.61,2.66,8.11,7.6,10.6c4.94,2.4,12.08,3.69,21.42,3.69c11.63,0,20.23-1.29,25.63-3.69c5.49-2.49,8.15-6.27,8.15-11.52
					C364.56,295.2,363.19,292.34,360.53,290.32z"/>
                <path class="st0" d="M453.76,302.57c0-0.55,0-1.01-0.09-1.38c-0.09-2.95-0.64-4.98-1.56-6.17c-0.83-1.11-2.39-2.12-4.6-2.86
					c2.57-0.83,4.6-2.21,6.07-4.15c1.38-1.94,2.12-4.15,2.12-6.64c0-2.03-0.46-3.87-1.47-5.44c-0.92-1.66-2.39-2.86-4.23-3.78
					c-1.47-0.83-6.58-2.21-11.95-2.12l-42.66-0.09v42.48h19.58v-12.9h11.58c2.39,0,4.14,0.28,5.15,0.92
					c1.01,0.64,1.65,1.75,1.84,3.32c0.09,0.83,0.18,1.94,0.28,3.5c0.09,2.58,0.37,4.33,1.1,5.16h21.51v-0.64
					C454.96,311.23,454.04,308.1,453.76,302.57z M432.53,287.46c-1.2,0.55-3.31,0.83-6.25,0.83h-11.31l0.1-7.37
					c-0.02-0.01-0.05-0.03-0.08-0.05c0.08-0.02,0.16-0.03,0.24-0.04c-0.05,0.03-0.11,0.06-0.16,0.09l10.75-0.18
					c3.4,0,5.7,0.28,6.8,0.83c1.2,0.55,1.75,1.47,1.75,2.86C434.37,285.8,433.72,286.81,432.53,287.46z"/>
                <path class="st0" d="M608.66,290.32c-2.73-2.03-6.82-3.41-12.27-4.15l-17.46-2.12c-3-0.28-4.91-0.74-5.91-1.11
					c-0.91-0.46-1.36-1.11-1.36-1.84c0-0.92,0.55-1.57,1.82-2.12c1.18-0.46,2.91-0.74,5.09-0.74c2.91,0,5.18,0.37,6.82,1.01
					c1.64,0.74,2.55,1.75,2.82,3.04h22.28c-0.45-4.61-3.09-8.02-8.18-10.23c-5-2.12-12.64-3.23-22.91-3.23
					c-9.91,0-17.18,1.11-21.73,3.23c-4.55,2.21-6.82,5.71-6.82,10.41c0,3.59,1.55,6.45,4.55,8.57c3,2.12,7.46,3.5,13.37,4.15
					l14.27,1.47c2.36,0.28,4.09,0.64,5.18,1.2c1.09,0.55,1.73,1.29,1.73,2.21c0,1.01-0.73,1.75-2,2.21
					c-1.27,0.55-3.18,0.83-5.73,0.83c-2.64,0-4.64-0.37-6.18-0.92c-1.45-0.65-2.27-1.57-2.45-2.67h-23.18
					c0,4.61,2.55,8.11,7.45,10.6c4.91,2.4,12,3.69,21.28,3.69c11.55,0,20.09-1.29,25.46-3.69c5.46-2.49,8.09-6.27,8.09-11.52
					C612.66,295.2,611.3,292.34,608.66,290.32z"/>
                <path class="st0" d="M526.35,290.78c0,4.24-0.73,7.19-2.19,8.85c-1.46,1.66-4.11,2.49-7.86,2.49c-3.65,0-6.3-0.83-7.76-2.49
					c-1.55-1.66-2.28-4.61-2.28-8.85v-20.83h-19.28v22.3c0,7.37,2.38,12.81,7.13,16.22c4.75,3.41,12.15,5.16,22.2,5.16
					c10.23,0,17.63-1.66,22.29-5.16c4.75-3.41,7.03-8.85,7.03-16.22v-22.3h-19.27V290.78z"/>
                <rect x="460.18" y="269.95" class="st0" width="19.34" height="42.48"/>
			</g>
            <g>
				<defs>
					<rect id="SVGID_1_" x="460.18" y="269.95" width="19.34" height="42.48"/>
				</defs>
                <use xlink:href="#SVGID_1_" style="overflow:visible;fill:#001B71;"/>
                <clipPath id="SVGID_00000171719202588819931110000018423427782475729067_">
					<use xlink:href="#SVGID_1_" style="overflow:visible;"/>
				</clipPath>

                <rect x="368.7" y="269.95"
                      style="clip-path:url(#SVGID_00000171719202588819931110000018423427782475729067_);fill:#001B71;"
                      width="18.82" height="42.48"/>
                <path style="clip-path:url(#SVGID_00000171719202588819931110000018423427782475729067_);fill:#001B71;"
                      d="M359.87,290.32
					c-2.68-2.03-6.69-3.41-12.04-4.15l-17.13-2.12c-2.94-0.28-4.82-0.74-5.8-1.11c-0.89-0.46-1.34-1.11-1.34-1.84
					c0-0.92,0.54-1.57,1.78-2.12c1.16-0.46,2.85-0.74,4.91-0.74c2.94,0,5.17,0.37,6.78,1.01c1.61,0.74,2.5,1.75,2.77,3.04h21.85
					c-0.45-4.61-3.12-8.02-8.03-10.23c-4.91-2.12-12.4-3.23-22.48-3.23c-9.72,0-16.86,1.11-21.32,3.23
					c-4.46,2.21-6.69,5.71-6.69,10.41c0,3.59,1.52,6.45,4.46,8.57c2.94,2.12,7.31,3.5,13.11,4.15l14,1.47
					c2.32,0.28,4.01,0.64,5.08,1.2c1.07,0.55,1.61,1.29,1.61,2.21c0,1.01-0.62,1.75-1.87,2.21c-1.25,0.55-3.12,0.83-5.71,0.83
					c-2.5,0-4.46-0.37-5.98-0.92c-1.43-0.65-2.23-1.57-2.41-2.67H302.6c0.09,4.61,2.59,8.11,7.4,10.6
					c4.82,2.4,11.77,3.69,20.87,3.69c11.33,0,19.71-1.29,24.98-3.69c5.35-2.49,7.94-6.27,7.94-11.52
					C363.79,295.2,362.46,292.34,359.87,290.32z"/>
                <path style="clip-path:url(#SVGID_00000171719202588819931110000018423427782475729067_);fill:#001B71;"
                      d="M451.39,302.57
					c0-0.55,0-1.01-0.09-1.38c-0.09-2.95-0.62-4.98-1.52-6.17c-0.8-1.11-2.32-2.12-4.46-2.86c2.5-0.83,4.46-2.21,5.89-4.15
					c1.34-1.94,2.05-4.15,2.05-6.64c0-2.03-0.45-3.87-1.43-5.44c-0.89-1.66-2.32-2.86-4.1-3.78c-1.43-0.83-6.39-2.21-11.6-2.12
					l-41.39-0.09v42.48h19v-12.9h11.24c2.32,0,4.01,0.28,5,0.92c0.98,0.64,1.61,1.75,1.78,3.32c0.09,0.83,0.18,1.94,0.27,3.5
					c0.09,2.58,0.36,4.33,1.07,5.16h20.87v-0.64C452.55,311.23,451.66,308.1,451.39,302.57z M430.78,287.46
					c-1.16,0.55-3.21,0.83-6.07,0.83h-10.97l0.1-7.37c-0.02-0.01-0.05-0.03-0.08-0.05c0.08-0.02,0.16-0.03,0.24-0.04
					c-0.05,0.03-0.11,0.06-0.16,0.09l10.43-0.18c3.3,0,5.53,0.28,6.6,0.83c1.16,0.55,1.69,1.47,1.69,2.86
					C432.57,285.8,431.94,286.81,430.78,287.46z"/>
                <path style="clip-path:url(#SVGID_00000171719202588819931110000018423427782475729067_);fill:#001B71;"
                      d="M608.74,290.32
					c-2.68-2.03-6.69-3.41-12.04-4.15l-17.13-2.12c-2.94-0.28-4.82-0.74-5.8-1.11c-0.89-0.46-1.34-1.11-1.34-1.84
					c0-0.92,0.54-1.57,1.78-2.12c1.16-0.46,2.85-0.74,5-0.74c2.85,0,5.08,0.37,6.69,1.01c1.61,0.74,2.5,1.75,2.76,3.04h21.85
					c-0.45-4.61-3.03-8.02-8.03-10.23c-4.91-2.12-12.4-3.23-22.48-3.23c-9.72,0-16.86,1.11-21.32,3.23
					c-4.46,2.21-6.69,5.71-6.69,10.41c0,3.59,1.52,6.45,4.46,8.57c2.94,2.12,7.31,3.5,13.11,4.15l14,1.47
					c2.32,0.28,4.01,0.64,5.08,1.2c1.07,0.55,1.7,1.29,1.7,2.21c0,1.01-0.71,1.75-1.96,2.21c-1.25,0.55-3.12,0.83-5.62,0.83
					c-2.59,0-4.55-0.37-6.07-0.92c-1.43-0.65-2.23-1.57-2.41-2.67h-22.75c0,4.61,2.5,8.11,7.31,10.6c4.82,2.4,11.77,3.69,20.87,3.69
					c11.33,0,19.71-1.29,24.98-3.69c5.35-2.49,7.94-6.27,7.94-11.52C612.66,295.2,611.33,292.34,608.74,290.32z"/>
                <path style="clip-path:url(#SVGID_00000171719202588819931110000018423427782475729067_);fill:#001B71;"
                      d="M526.41,290.78
					c0,4.24-0.71,7.19-2.14,8.85c-1.43,1.66-4.01,2.49-7.67,2.49c-3.57,0-6.15-0.83-7.58-2.49c-1.52-1.66-2.23-4.61-2.23-8.85
					v-20.83h-18.82v22.3c0,7.37,2.32,12.81,6.96,16.22c4.64,3.41,11.86,5.16,21.68,5.16c9.99,0,17.22-1.66,21.76-5.16
					c4.64-3.41,6.87-8.85,6.87-16.22v-22.3h-18.82V290.78z"/>
			</g>
		</g>
        <path class="st0" d="M216.54,270.34c26.67-21.22,79.35-50.69,79.35-50.69s-16.94,14.27-31.4,29.15
			c-8.05,8.28-15.83,19.28-20.17,25.55l11.46-2.98l-16.48,14.81l-2.58-21.73l-2.95,21.73L216.54,270.34z M259.46,313.14
			c0,0,13.79-10.04,24.05-19.06c6.69-5.87,12.19-13.74,11.37-21.8c-0.79-7.72-7.44-8.69-13.87-7.11
			c-5.42,1.34-19.87,4.88-19.87,4.88c-2.22,2-17.94,19.98-17.94,19.98l21.54,3.16l-21.5,2.67L259.46,313.14z M229.98,295.87
			l-22.02-2.67l22.02-3.23l-16.04-17.72c0,0-16.99,13.02-20.07,16.09c-3.08,3.06-9.17,7.8-11.65,16.35
			c-2.59,8.94,2.39,14.83,11.04,13.29c7.88-1.41,21.12-5.2,21.12-5.2L229.98,295.87z M239.3,299.77l-2.58,21.55l-2.95-21.55
			l-12.9,11.38l11.44-2.34c0,0-16.87,26.54-51.58,54.2c0,0,41.51-23.16,75.7-47.64L239.3,299.77z"/>
	</g>
        <path class="st0" d="M216.54,270.34c26.67-21.22,79.35-50.69,79.35-50.69s-16.94,14.27-31.4,29.15
		c-10.73,11.04-16.9,20.33-20.17,25.55l11.46-2.98l-16.48,14.81l-2.58-21.73l-2.95,21.73L216.54,270.34z M259.46,313.14
		c0,0,13.79-10.04,24.05-19.06c6.69-5.87,12.19-13.74,11.37-21.8c-0.79-7.72-7.44-8.69-13.87-7.11c-5.42,1.34-19.87,4.88-19.87,4.88
		c-2.22,2-17.94,19.98-17.94,19.98l21.54,3.16l-21.5,2.67L259.46,313.14z M229.98,295.87l-22.02-2.67l22.02-3.23l-16.04-17.72
		c0,0-16.99,13.02-20.07,16.09c-3.08,3.06-9.17,7.8-11.65,16.35c-2.59,8.94,2.39,14.83,11.04,13.29c7.88-1.41,21.12-5.2,21.12-5.2
		L229.98,295.87z M239.3,299.77l-2.58,21.55l-2.95-21.55l-12.9,11.38l11.44-2.34c0,0-16.87,26.54-51.58,54.2
		c0,0,41.51-23.16,75.7-47.64L239.3,299.77z"/>
</g>
</svg>
